<svg xmlns="http://www.w3.org/2000/svg" xmlns:xlink="http://www.w3.org/1999/xlink" width="734pt" height="3032" viewBox="0 0 734.39 2274"><g id="graph0" class="graph" transform="scale(1 1) rotate(0) translate(4 2270)"><title>G</title><polygon fill="#fff" stroke="transparent" points="-4 4 -4 -2270 730.388 -2270 730.388 4 -4 4"/><g id="clust1" class="cluster"><title>cluster_Global</title><path fill="none" stroke="silver" d="M24.1938,-98C24.1938,-98 706.3875,-98 706.3875,-98 712.3875,-98 718.3875,-104 718.3875,-110 718.3875,-110 718.3875,-2246 718.3875,-2246 718.3875,-2252 712.3875,-2258 706.3875,-2258 706.3875,-2258 24.1938,-2258 24.1938,-2258 18.1938,-2258 12.1938,-2252 12.1938,-2246 12.1938,-2246 12.1938,-110 12.1938,-110 12.1938,-104 18.1938,-98 24.1938,-98"/><text x="365.291" y="-2245.2" fill="silver" font-family="Times,serif" font-size="11" text-anchor="middle">Global</text></g><g id="clust2" class="cluster"><title>cluster_\ArangoDBClient</title><path fill="none" stroke="silver" d="M32.1938,-106C32.1938,-106 698.3875,-106 698.3875,-106 704.3875,-106 710.3875,-112 710.3875,-118 710.3875,-118 710.3875,-2218 710.3875,-2218 710.3875,-2224 704.3875,-2230 698.3875,-2230 698.3875,-2230 32.1938,-2230 32.1938,-2230 26.1938,-2230 20.1938,-2224 20.1938,-2218 20.1938,-2218 20.1938,-118 20.1938,-118 20.1938,-112 26.1938,-106 32.1938,-106"/><text x="365.291" y="-2217.2" fill="silver" font-family="Times,serif" font-size="11" text-anchor="middle">ArangoDBClient</text></g><g id="node1" class="node"><title>\\ArangoDBClient\\Edge</title><polygon fill="none" stroke="#000" points="619.888 -1446 565.888 -1446 565.888 -1410 619.888 -1410 619.888 -1446"/><text x="592.888" y="-1425.2" fill="#000" font-family="Courier,monospace" font-size="11" text-anchor="middle">Edge</text></g><g id="node33" class="node"><title>\\ArangoDBClient\\Document</title><polygon fill="none" stroke="#000" points="347.387 -1122 276.387 -1122 276.387 -1086 347.387 -1086 347.387 -1122"/><text x="311.887" y="-1101.2" fill="#000" font-family="Courier,monospace" font-size="11" text-anchor="middle">Document</text></g><g id="edge1" class="edge"><title>\\ArangoDBClient\\Edge-&gt;\\ArangoDBClient\\Document</title><path fill="none" stroke="#000" d="M565.6041,-1427.1448C541.7715,-1425.126 507.3363,-1418.9968 483.3875,-1401 389.09,-1330.1382 338.0351,-1191.0928 319.7657,-1131.8265"/><polygon fill="none" stroke="#000" points="323.057 -1130.616 316.827 -1122.046 316.353 -1132.63 323.057 -1130.616"/></g><g id="node2" class="node"><title>\\ArangoDBClient\\Transaction</title><polygon fill="none" stroke="#000" points="638.388 -2148 547.388 -2148 547.388 -2112 638.388 -2112 638.388 -2148"/><text x="592.888" y="-2127.2" fill="#000" font-family="Courier,monospace" font-size="11" text-anchor="middle">Transaction</text></g><g id="node31" class="node"><title>\\ArangoDBClient\\TransactionBase</title><polygon fill="none" stroke="#000" points="370.887 -2175 252.887 -2175 252.887 -2139 370.887 -2139 370.887 -2175"/><text x="311.887" y="-2154.2" fill="#000" font-family="Courier,monospace" font-size="11" text-anchor="middle">TransactionBase</text></g><g id="edge2" class="edge"><title>\\ArangoDBClient\\Transaction-&gt;\\ArangoDBClient\\TransactionBase</title><path fill="none" stroke="#000" d="M547.1146,-2134.3981C502.1362,-2138.7199 432.9141,-2145.3711 381.19,-2150.341"/><polygon fill="none" stroke="#000" points="380.71 -2146.871 371.091 -2151.311 381.38 -2153.839 380.71 -2146.871"/></g><g id="node3" class="node"><title>\\ArangoDBClient\\StreamingTransaction</title><polygon fill="none" stroke="#000" points="668.888 -2202 516.888 -2202 516.888 -2166 668.888 -2166 668.888 -2202"/><text x="592.888" y="-2181.2" fill="#000" font-family="Courier,monospace" font-size="11" text-anchor="middle">StreamingTransaction</text></g><g id="edge3" class="edge"><title>\\ArangoDBClient\\StreamingTransaction-&gt;\\ArangoDBClient\\TransactionBase</title><path fill="none" stroke="#000" d="M516.8449,-2176.6934C474.5902,-2172.6333 422.4049,-2167.6191 381.2673,-2163.6664"/><polygon fill="none" stroke="#000" points="381.348 -2160.158 371.059 -2162.686 380.679 -2167.126 381.348 -2160.158"/></g><g id="node4" class="node"><title>\\ArangoDBClient\\UrlHelper</title><polygon fill="none" stroke="#000" points="634.888 -2040 550.888 -2040 550.888 -2004 634.888 -2004 634.888 -2040"/><text x="558.888" y="-2025.2" fill="#000" font-family="Courier,monospace" font-size="11" text-anchor="start">«abstract»</text><text x="562.388" y="-2013.2" fill="#000" font-family="Courier,monospace" font-size="11" text-anchor="start">UrlHelper</text></g><g id="node5" class="node"><title>\\ArangoDBClient\\Endpoint</title><polygon fill="none" stroke="#000" points="628.388 -1986 557.388 -1986 557.388 -1950 628.388 -1950 628.388 -1986"/><text x="592.888" y="-1965.2" fill="#000" font-family="Courier,monospace" font-size="11" text-anchor="middle">Endpoint</text></g><g id="node6" class="node"><title>\\ArangoDBClient\\Batch</title><polygon fill="none" stroke="#000" points="619.888 -1932 565.888 -1932 565.888 -1896 619.888 -1896 619.888 -1932"/><text x="592.888" y="-1911.2" fill="#000" font-family="Courier,monospace" font-size="11" text-anchor="middle">Batch</text></g><g id="node7" class="node"><title>\\ArangoDBClient\\ExportCursor</title><polygon fill="none" stroke="#000" points="641.888 -1878 543.888 -1878 543.888 -1842 641.888 -1842 641.888 -1878"/><text x="592.888" y="-1857.2" fill="#000" font-family="Courier,monospace" font-size="11" text-anchor="middle">ExportCursor</text></g><g id="node8" class="node"><title>\\ArangoDBClient\\FailoverException</title><polygon fill="none" stroke="#000" points="658.388 -798 527.388 -798 527.388 -762 658.388 -762 658.388 -798"/><text x="592.888" y="-777.2" fill="#000" font-family="Courier,monospace" font-size="11" text-anchor="middle">FailoverException</text></g><g id="node38" class="node"><title>\\ArangoDBClient\\Exception</title><polygon fill="none" stroke="#000" points="350.387 -798 273.387 -798 273.387 -762 350.387 -762 350.387 -798"/><text x="311.887" y="-777.2" fill="#000" font-family="Courier,monospace" font-size="11" text-anchor="middle">Exception</text></g><g id="edge4" class="edge"><title>\\ArangoDBClient\\FailoverException-&gt;\\ArangoDBClient\\Exception</title><path fill="none" stroke="#000" d="M527.3602,-780C476.3994,-780 406.8286,-780 360.6868,-780"/><polygon fill="none" stroke="#000" points="360.638 -776.5 350.638 -780 360.638 -783.5 360.638 -776.5"/></g><g id="node9" class="node"><title>\\ArangoDBClient\\ConnectException</title><polygon fill="none" stroke="#000" points="655.388 -474 530.388 -474 530.388 -438 655.388 -438 655.388 -474"/><text x="592.888" y="-453.2" fill="#000" font-family="Courier,monospace" font-size="11" text-anchor="middle">ConnectException</text></g><g id="edge5" class="edge"><title>\\ArangoDBClient\\ConnectException-&gt;\\ArangoDBClient\\Exception</title><path fill="none" stroke="#000" d="M530.251,-462.454C513.8186,-466.4439 496.9272,-472.8254 483.3875,-483 389.09,-553.8618 338.0351,-692.9072 319.7657,-752.1735"/><polygon fill="none" stroke="#000" points="316.353 -751.37 316.827 -761.954 323.057 -753.384 316.353 -751.37"/></g><g id="node10" class="node"><title>\\ArangoDBClient\\Collection</title><polygon fill="none" stroke="#000" points="353.887 -312 269.887 -312 269.887 -276 353.887 -276 353.887 -312"/><text x="311.887" y="-291.2" fill="#000" font-family="Courier,monospace" font-size="11" text-anchor="middle">Collection</text></g><g id="node11" class="node"><title>\\ArangoDBClient\\TraceRequest</title><polygon fill="none" stroke="#000" points="641.888 -1716 543.888 -1716 543.888 -1680 641.888 -1680 641.888 -1716"/><text x="592.888" y="-1695.2" fill="#000" font-family="Courier,monospace" font-size="11" text-anchor="middle">TraceRequest</text></g><g id="node12" class="node"><title>\\ArangoDBClient\\AqlUserFunction</title><polygon fill="none" stroke="#000" points="651.888 -1662 533.888 -1662 533.888 -1626 651.888 -1626 651.888 -1662"/><text x="592.888" y="-1641.2" fill="#000" font-family="Courier,monospace" font-size="11" text-anchor="middle">AqlUserFunction</text></g><g id="node13" class="node"><title>\\ArangoDBClient\\Traversal</title><polygon fill="none" stroke="#000" points="631.388 -1608 554.388 -1608 554.388 -1572 631.388 -1572 631.388 -1608"/><text x="592.888" y="-1587.2" fill="#000" font-family="Courier,monospace" font-size="11" text-anchor="middle">Traversal</text></g><g id="node14" class="node"><title>\\ArangoDBClient\\View</title><polygon fill="none" stroke="#000" points="619.888 -1554 565.888 -1554 565.888 -1518 619.888 -1518 619.888 -1554"/><text x="592.888" y="-1533.2" fill="#000" font-family="Courier,monospace" font-size="11" text-anchor="middle">View</text></g><g id="node15" class="node"><title>\\ArangoDBClient\\DefaultValues</title><polygon fill="none" stroke="#000" points="644.888 -1500 540.888 -1500 540.888 -1464 644.888 -1464 644.888 -1500"/><text x="558.888" y="-1485.2" fill="#000" font-family="Courier,monospace" font-size="11" text-anchor="start">«abstract»</text><text x="548.888" y="-1473.2" fill="#000" font-family="Courier,monospace" font-size="11" text-anchor="start">DefaultValues</text></g><g id="node16" class="node"><title>\\ArangoDBClient\\User</title><polygon fill="none" stroke="#000" points="619.888 -1122 565.888 -1122 565.888 -1086 619.888 -1086 619.888 -1122"/><text x="592.888" y="-1101.2" fill="#000" font-family="Courier,monospace" font-size="11" text-anchor="middle">User</text></g><g id="edge6" class="edge"><title>\\ArangoDBClient\\User-&gt;\\ArangoDBClient\\Document</title><path fill="none" stroke="#000" d="M565.6888,-1104C517.4835,-1104 416.5891,-1104 357.5633,-1104"/><polygon fill="none" stroke="#000" points="357.405 -1100.5 347.405 -1104 357.405 -1107.5 357.405 -1100.5"/></g><g id="node17" class="node"><title>\\ArangoDBClient\\CollectionHandler</title><polygon fill="none" stroke="#000" points="377.387 -1810 246.387 -1810 246.387 -1774 377.387 -1774 377.387 -1810"/><text x="311.887" y="-1789.2" fill="#000" font-family="Courier,monospace" font-size="11" text-anchor="middle">CollectionHandler</text></g><g id="node39" class="node"><title>\\ArangoDBClient\\Handler</title><polygon fill="none" stroke="#000" points="112.194 -1783 28.194 -1783 28.194 -1747 112.194 -1747 112.194 -1783"/><text x="36.194" y="-1768.2" fill="#000" font-family="Courier,monospace" font-size="11" text-anchor="start">«abstract»</text><text x="46.194" y="-1756.2" fill="#000" font-family="Courier,monospace" font-size="11" text-anchor="start">Handler</text></g><g id="edge7" class="edge"><title>\\ArangoDBClient\\CollectionHandler-&gt;\\ArangoDBClient\\Handler</title><path fill="none" stroke="#000" d="M246.1629,-1784.6578C207.3587,-1780.3229 158.9042,-1774.91 122.6708,-1770.8623"/><polygon fill="none" stroke="#000" points="122.646 -1767.338 112.319 -1769.706 121.869 -1774.294 122.646 -1767.338"/></g><g id="node18" class="node"><title>\\ArangoDBClient\\Database</title><polygon fill="none" stroke="#000" points="628.388 -1392 557.388 -1392 557.388 -1356 628.388 -1356 628.388 -1392"/><text x="592.888" y="-1371.2" fill="#000" font-family="Courier,monospace" font-size="11" text-anchor="middle">Database</text></g><g id="node19" class="node"><title>\\ArangoDBClient\\StreamingTransactionHandler</title><polygon fill="none" stroke="#000" points="411.387 -1756 212.387 -1756 212.387 -1720 411.387 -1720 411.387 -1756"/><text x="311.887" y="-1735.2" fill="#000" font-family="Courier,monospace" font-size="11" text-anchor="middle">StreamingTransactionHandler</text></g><g id="edge8" class="edge"><title>\\ArangoDBClient\\StreamingTransactionHandler-&gt;\\ArangoDBClient\\Handler</title><path fill="none" stroke="#000" d="M212.186,-1749.1378C181.4209,-1752.5746 148.7685,-1756.2223 122.5426,-1759.152"/><polygon fill="none" stroke="#000" points="122.007 -1755.69 112.458 -1760.279 122.784 -1762.647 122.007 -1755.69"/></g><g id="node20" class="node"><title>\\ArangoDBClient\\BatchPart</title><polygon fill="none" stroke="#000" points="631.388 -1338 554.388 -1338 554.388 -1302 631.388 -1302 631.388 -1338"/><text x="592.888" y="-1317.2" fill="#000" font-family="Courier,monospace" font-size="11" text-anchor="middle">BatchPart</text></g><g id="node21" class="node"><title>\\ArangoDBClient\\FoxxHandler</title><polygon fill="none" stroke="#000" points="357.387 -1702 266.387 -1702 266.387 -1666 357.387 -1666 357.387 -1702"/><text x="311.887" y="-1681.2" fill="#000" font-family="Courier,monospace" font-size="11" text-anchor="middle">FoxxHandler</text></g><g id="edge9" class="edge"><title>\\ArangoDBClient\\FoxxHandler-&gt;\\ArangoDBClient\\Handler</title><path fill="none" stroke="#000" d="M266.0393,-1695.4357C249.0751,-1699.9302 229.7521,-1705.3618 212.3875,-1711 182.0778,-1720.8415 148.7457,-1733.4043 121.9763,-1743.9358"/><polygon fill="none" stroke="#000" points="120.438 -1740.78 112.429 -1747.715 123.015 -1747.289 120.438 -1740.78"/></g><g id="node22" class="node"><title>\\ArangoDBClient\\Connection</title><polygon fill="none" stroke="#000" points="634.888 -1284 550.888 -1284 550.888 -1248 634.888 -1248 634.888 -1284"/><text x="592.888" y="-1263.2" fill="#000" font-family="Courier,monospace" font-size="11" text-anchor="middle">Connection</text></g><g id="node23" class="node"><title>\\ArangoDBClient\\TraceResponse</title><polygon fill="none" stroke="#000" points="644.888 -1230 540.888 -1230 540.888 -1194 644.888 -1194 644.888 -1230"/><text x="592.888" y="-1209.2" fill="#000" font-family="Courier,monospace" font-size="11" text-anchor="middle">TraceResponse</text></g><g id="node24" class="node"><title>\\ArangoDBClient\\Autoloader</title><polygon fill="none" stroke="#000" points="634.888 -1176 550.888 -1176 550.888 -1140 634.888 -1140 634.888 -1176"/><text x="592.888" y="-1155.2" fill="#000" font-family="Courier,monospace" font-size="11" text-anchor="middle">Autoloader</text></g><g id="node25" class="node"><title>\\ArangoDBClient\\ServerException</title><polygon fill="none" stroke="#000" points="651.888 -906 533.888 -906 533.888 -870 651.888 -870 651.888 -906"/><text x="592.888" y="-885.2" fill="#000" font-family="Courier,monospace" font-size="11" text-anchor="middle">ServerException</text></g><g id="edge10" class="edge"><title>\\ArangoDBClient\\ServerException-&gt;\\ArangoDBClient\\Exception</title><path fill="none" stroke="#000" d="M533.7166,-875.6941C517.2261,-871.6505 499.4383,-866.7048 483.3875,-861 437.8692,-844.8217 388.1986,-820.5846 354.0838,-802.8384"/><polygon fill="none" stroke="#000" points="355.372 -799.562 344.89 -798.017 352.121 -805.761 355.372 -799.562"/></g><g id="node26" class="node"><title>\\ArangoDBClient\\UserHandler</title><polygon fill="none" stroke="#000" points="357.387 -1648 266.387 -1648 266.387 -1612 357.387 -1612 357.387 -1648"/><text x="311.887" y="-1627.2" fill="#000" font-family="Courier,monospace" font-size="11" text-anchor="middle">UserHandler</text></g><g id="edge11" class="edge"><title>\\ArangoDBClient\\UserHandler-&gt;\\ArangoDBClient\\Handler</title><path fill="none" stroke="#000" d="M265.9741,-1638.5603C248.6431,-1642.7844 229.09,-1648.7814 212.3875,-1657 168.0849,-1678.7994 123.8666,-1715.2799 96.7774,-1739.7344"/><polygon fill="none" stroke="#000" points="94.289 -1737.267 89.272 -1746.599 99.014 -1742.432 94.289 -1737.267"/></g><g id="node27" class="node"><title>\\ArangoDBClient\\QueryCacheHandler</title><polygon fill="none" stroke="#000" points="377.387 -1594 246.387 -1594 246.387 -1558 377.387 -1558 377.387 -1594"/><text x="311.887" y="-1573.2" fill="#000" font-family="Courier,monospace" font-size="11" text-anchor="middle">QueryCacheHandler</text></g><g id="edge12" class="edge"><title>\\ArangoDBClient\\QueryCacheHandler-&gt;\\ArangoDBClient\\Handler</title><path fill="none" stroke="#000" d="M246.1661,-1587.9583C234.4015,-1591.7066 222.6387,-1596.6059 212.3875,-1603 156.1865,-1638.0551 109.7263,-1702.0785 86.4036,-1738.2546"/><polygon fill="none" stroke="#000" points="83.374 -1736.496 80.981 -1746.817 89.288 -1740.242 83.374 -1736.496"/></g><g id="node28" class="node"><title>\\ArangoDBClient\\HttpHelper</title><polygon fill="none" stroke="#000" points="634.888 -1068 550.888 -1068 550.888 -1032 634.888 -1032 634.888 -1068"/><text x="592.888" y="-1047.2" fill="#000" font-family="Courier,monospace" font-size="11" text-anchor="middle">HttpHelper</text></g><g id="node29" class="node"><title>\\ArangoDBClient\\ViewHandler</title><polygon fill="none" stroke="#000" points="357.387 -1540 266.387 -1540 266.387 -1504 357.387 -1504 357.387 -1540"/><text x="311.887" y="-1519.2" fill="#000" font-family="Courier,monospace" font-size="11" text-anchor="middle">ViewHandler</text></g><g id="edge13" class="edge"><title>\\ArangoDBClient\\ViewHandler-&gt;\\ArangoDBClient\\Handler</title><path fill="none" stroke="#000" d="M266.2707,-1527.2693C248.1991,-1531.0844 228.0439,-1537.6615 212.3875,-1549 144.296,-1598.3126 99.7368,-1691.0572 80.7165,-1737.3086"/><polygon fill="none" stroke="#000" points="77.422 -1736.119 76.943 -1746.703 83.918 -1738.728 77.422 -1736.119"/></g><g id="node30" class="node"><title>\\ArangoDBClient\\Cursor</title><polygon fill="none" stroke="#000" points="621.388 -258 564.388 -258 564.388 -222 621.388 -222 621.388 -258"/><text x="592.888" y="-237.2" fill="#000" font-family="Courier,monospace" font-size="11" text-anchor="middle">Cursor</text></g><g id="node55" class="node"><title>\\Iterator</title><ellipse cx="311.887" cy="-72" fill="none" stroke="#000" rx="38.993" ry="18"/><text x="311.887" y="-68.3" fill="silver" font-family="Times,serif" font-size="14" text-anchor="middle">\Iterator</text></g><g id="edge14" class="edge"><title>\\ArangoDBClient\\Cursor-&gt;\\Iterator</title><path fill="none" stroke="#000" stroke-dasharray="1 5" d="M563.9471,-238.6585C540.3507,-236.288 507.1559,-229.9169 483.3875,-213 435.4801,-178.9023 458.4085,-137.3101 411.3875,-102 396.4327,-90.7697 377.2755,-83.7154 359.7709,-79.2965"/><polygon fill="none" stroke="#000" points="360.229 -75.811 349.7 -76.987 358.665 -82.634 360.229 -75.811"/></g><g id="node32" class="node"><title>\\ArangoDBClient\\Graph</title><polygon fill="none" stroke="#000" points="619.888 -1014 565.888 -1014 565.888 -978 619.888 -978 619.888 -1014"/><text x="592.888" y="-993.2" fill="#000" font-family="Courier,monospace" font-size="11" text-anchor="middle">Graph</text></g><g id="edge15" class="edge"><title>\\ArangoDBClient\\Graph-&gt;\\ArangoDBClient\\Document</title><path fill="none" stroke="#000" d="M565.4441,-1001.18C543.0239,-1005.7874 510.6923,-1013.2952 483.3875,-1023 437.8692,-1039.1783 388.1986,-1063.4154 354.0838,-1081.1616"/><polygon fill="none" stroke="#000" points="352.121 -1078.239 344.89 -1085.983 355.372 -1084.438 352.121 -1078.239"/></g><g id="node56" class="node"><title>\\JsonSerializable</title><ellipse cx="70.194" cy="-72" fill="none" stroke="#000" rx="70.388" ry="18"/><text x="70.194" y="-68.3" fill="silver" font-family="Times,serif" font-size="14" text-anchor="middle">\JsonSerializable</text></g><g id="edge16" class="edge"><title>\\ArangoDBClient\\Document-&gt;\\JsonSerializable</title><path fill="none" stroke="#000" stroke-dasharray="1 5" d="M304.2751,-1085.9749C285.3184,-1040.2597 235.8434,-915.7035 212.3875,-807 179.1709,-653.0614 233.7183,-228.8456 140.3875,-102 137.0495,-97.4633 132.8852,-93.6061 128.2609,-90.3278"/><polygon fill="none" stroke="#000" points="129.886 -87.22 119.52 -85.03 126.258 -93.206 129.886 -87.22"/></g><g id="node34" class="node"><title>\\ArangoDBClient\\Vertex</title><polygon fill="none" stroke="#000" points="621.388 -1770 564.388 -1770 564.388 -1734 621.388 -1734 621.388 -1770"/><text x="592.888" y="-1749.2" fill="#000" font-family="Courier,monospace" font-size="11" text-anchor="middle">Vertex</text></g><g id="edge17" class="edge"><title>\\ArangoDBClient\\Vertex-&gt;\\ArangoDBClient\\Document</title><path fill="none" stroke="#000" d="M563.9183,-1752.5265C539.3243,-1751.3787 504.7214,-1745.751 483.3875,-1725 461.0851,-1703.3069 347.9652,-1250.0794 318.7705,-1131.9513"/><polygon fill="none" stroke="#000" points="322.156 -1131.062 316.361 -1122.192 315.36 -1132.74 322.156 -1131.062"/></g><g id="node35" class="node"><title>\\ArangoDBClient\\QueryHandler</title><polygon fill="none" stroke="#000" points="360.887 -2026 262.887 -2026 262.887 -1990 360.887 -1990 360.887 -2026"/><text x="311.887" y="-2005.2" fill="#000" font-family="Courier,monospace" font-size="11" text-anchor="middle">QueryHandler</text></g><g id="edge18" class="edge"><title>\\ArangoDBClient\\QueryHandler-&gt;\\ArangoDBClient\\Handler</title><path fill="none" stroke="#000" d="M262.7323,-2001.9535C245.6053,-1998.043 227.0292,-1991.6036 212.3875,-1981 144.296,-1931.6874 99.7368,-1838.9428 80.7165,-1792.6914"/><polygon fill="none" stroke="#000" points="83.918 -1791.272 76.943 -1783.297 77.422 -1793.881 83.918 -1791.272"/></g><g id="node36" class="node"><title>\\ArangoDBClient\\DocumentHandler</title><polygon fill="none" stroke="#000" points="370.887 -1918 252.887 -1918 252.887 -1882 370.887 -1882 370.887 -1918"/><text x="311.887" y="-1897.2" fill="#000" font-family="Courier,monospace" font-size="11" text-anchor="middle">DocumentHandler</text></g><g id="edge19" class="edge"><title>\\ArangoDBClient\\DocumentHandler-&gt;\\ArangoDBClient\\Handler</title><path fill="none" stroke="#000" d="M252.6385,-1887.9322C239.0447,-1884.0782 224.9144,-1879.1639 212.3875,-1873 168.0849,-1851.2006 123.8666,-1814.7201 96.7774,-1790.2656"/><polygon fill="none" stroke="#000" points="99.014 -1787.568 89.272 -1783.401 94.289 -1792.733 99.014 -1787.568"/></g><g id="node37" class="node"><title>\\ArangoDBClient\\Statement</title><polygon fill="none" stroke="#000" points="631.388 -852 554.388 -852 554.388 -816 631.388 -816 631.388 -852"/><text x="592.888" y="-831.2" fill="#000" font-family="Courier,monospace" font-size="11" text-anchor="middle">Statement</text></g><g id="node57" class="node"><title>\\Exception</title><ellipse cx="70.194" cy="-18" fill="none" stroke="#000" rx="48.993" ry="18"/><text x="70.194" y="-14.3" fill="silver" font-family="Times,serif" font-size="14" text-anchor="middle">\Exception</text></g><g id="edge20" class="edge"><title>\\ArangoDBClient\\Exception-&gt;\\Exception</title><path fill="none" stroke="#000" d="M307.8979,-761.8491C283.2964,-650.0589 152.8508,-59.3134 140.3875,-45 135.4359,-39.3133 129.1463,-34.8183 122.3742,-31.2667"/><polygon fill="none" stroke="#000" points="123.474 -27.923 112.921 -26.985 120.586 -34.299 123.474 -27.923"/></g><g id="node40" class="node"><title>\\ArangoDBClient\\VertexHandler</title><polygon fill="none" stroke="#000" points="644.888 -1824 540.888 -1824 540.888 -1788 644.888 -1788 644.888 -1824"/><text x="592.888" y="-1803.2" fill="#000" font-family="Courier,monospace" font-size="11" text-anchor="middle">VertexHandler</text></g><g id="edge21" class="edge"><title>\\ArangoDBClient\\VertexHandler-&gt;\\ArangoDBClient\\DocumentHandler</title><path fill="none" stroke="#000" d="M540.7602,-1815.8815C522.3055,-1820.1526 501.6108,-1825.8389 483.3875,-1833 449.317,-1846.3885 445.3003,-1859.2168 411.3875,-1873 401.7118,-1876.9325 391.2775,-1880.4751 380.9331,-1883.6012"/><polygon fill="none" stroke="#000" points="379.695 -1880.316 371.07 -1886.47 381.65 -1887.038 379.695 -1880.316"/></g><g id="node41" class="node"><title>\\ArangoDBClient\\HttpResponse</title><polygon fill="none" stroke="#000" points="641.888 -744 543.888 -744 543.888 -708 641.888 -708 641.888 -744"/><text x="592.888" y="-723.2" fill="#000" font-family="Courier,monospace" font-size="11" text-anchor="middle">HttpResponse</text></g><g id="node42" class="node"><title>\\ArangoDBClient\\BindVars</title><polygon fill="none" stroke="#000" points="628.388 -690 557.388 -690 557.388 -654 628.388 -654 628.388 -690"/><text x="592.888" y="-669.2" fill="#000" font-family="Courier,monospace" font-size="11" text-anchor="middle">BindVars</text></g><g id="node43" class="node"><title>\\ArangoDBClient\\UpdatePolicy</title><polygon fill="none" stroke="#000" points="641.888 -636 543.888 -636 543.888 -600 641.888 -600 641.888 -636"/><text x="592.888" y="-615.2" fill="#000" font-family="Courier,monospace" font-size="11" text-anchor="middle">UpdatePolicy</text></g><g id="node44" class="node"><title>\\ArangoDBClient\\Urls</title><polygon fill="none" stroke="#000" points="634.888 -582 550.888 -582 550.888 -546 634.888 -546 634.888 -582"/><text x="558.888" y="-567.2" fill="#000" font-family="Courier,monospace" font-size="11" text-anchor="start">«abstract»</text><text x="578.888" y="-555.2" fill="#000" font-family="Courier,monospace" font-size="11" text-anchor="start">Urls</text></g><g id="node45" class="node"><title>\\ArangoDBClient\\EdgeDefinition</title><polygon fill="none" stroke="#000" points="648.388 -528 537.388 -528 537.388 -492 648.388 -492 648.388 -528"/><text x="592.888" y="-507.2" fill="#000" font-family="Courier,monospace" font-size="11" text-anchor="middle">EdgeDefinition</text></g><g id="node46" class="node"><title>\\ArangoDBClient\\ClientException</title><polygon fill="none" stroke="#000" points="651.888 -960 533.888 -960 533.888 -924 651.888 -924 651.888 -960"/><text x="592.888" y="-939.2" fill="#000" font-family="Courier,monospace" font-size="11" text-anchor="middle">ClientException</text></g><g id="edge22" class="edge"><title>\\ArangoDBClient\\ClientException-&gt;\\ArangoDBClient\\Exception</title><path fill="none" stroke="#000" d="M533.8798,-932.284C517.0515,-928.2407 499.0459,-922.6473 483.3875,-915 425.3187,-886.6401 368.5054,-836.1511 337.0469,-805.6044"/><polygon fill="none" stroke="#000" points="339.195 -802.808 329.61 -798.294 334.288 -807.8 339.195 -802.808"/></g><g id="node47" class="node"><title>\\ArangoDBClient\\Export</title><polygon fill="none" stroke="#000" points="621.388 -420 564.388 -420 564.388 -384 621.388 -384 621.388 -420"/><text x="592.888" y="-399.2" fill="#000" font-family="Courier,monospace" font-size="11" text-anchor="middle">Export</text></g><g id="node48" class="node"><title>\\ArangoDBClient\\ValueValidator</title><polygon fill="none" stroke="#000" points="648.388 -366 537.388 -366 537.388 -330 648.388 -330 648.388 -366"/><text x="592.888" y="-345.2" fill="#000" font-family="Courier,monospace" font-size="11" text-anchor="middle">ValueValidator</text></g><g id="node49" class="node"><title>\\ArangoDBClient\\GraphHandler</title><polygon fill="none" stroke="#000" points="360.887 -1972 262.887 -1972 262.887 -1936 360.887 -1936 360.887 -1972"/><text x="311.887" y="-1951.2" fill="#000" font-family="Courier,monospace" font-size="11" text-anchor="middle">GraphHandler</text></g><g id="edge23" class="edge"><title>\\ArangoDBClient\\GraphHandler-&gt;\\ArangoDBClient\\Handler</title><path fill="none" stroke="#000" d="M262.7383,-1946.6331C245.8941,-1942.6028 227.4985,-1936.4254 212.3875,-1927 156.1865,-1891.9449 109.7263,-1827.9215 86.4036,-1791.7454"/><polygon fill="none" stroke="#000" points="89.288 -1789.758 80.981 -1783.183 83.374 -1793.504 89.288 -1789.758"/></g><g id="node50" class="node"><title>\\ArangoDBClient\\StreamingTransactionCollection</title><polygon fill="none" stroke="#000" points="702.388 -312 483.387 -312 483.387 -276 702.388 -276 702.388 -312"/><text x="592.888" y="-291.2" fill="#000" font-family="Courier,monospace" font-size="11" text-anchor="middle">StreamingTransactionCollection</text></g><g id="edge24" class="edge"><title>\\ArangoDBClient\\StreamingTransactionCollection-&gt;\\ArangoDBClient\\Collection</title><path fill="none" stroke="#000" d="M483.0383,-294C442.2023,-294 397.7349,-294 364.3626,-294"/><polygon fill="none" stroke="#000" points="363.936 -290.5 353.936 -294 363.936 -297.5 363.936 -290.5"/></g><g id="node51" class="node"><title>\\ArangoDBClient\\AdminHandler</title><polygon fill="none" stroke="#000" points="360.887 -1864 262.887 -1864 262.887 -1828 360.887 -1828 360.887 -1864"/><text x="311.887" y="-1843.2" fill="#000" font-family="Courier,monospace" font-size="11" text-anchor="middle">AdminHandler</text></g><g id="edge25" class="edge"><title>\\ArangoDBClient\\AdminHandler-&gt;\\ArangoDBClient\\Handler</title><path fill="none" stroke="#000" d="M262.7686,-1833.6939C246.6204,-1829.3767 228.6455,-1824.2789 212.3875,-1819 182.0778,-1809.1585 148.7457,-1796.5957 121.9763,-1786.0642"/><polygon fill="none" stroke="#000" points="123.015 -1782.711 112.429 -1782.285 120.438 -1789.22 123.015 -1782.711"/></g><g id="node52" class="node"><title>\\ArangoDBClient\\EdgeHandler</title><polygon fill="none" stroke="#000" points="638.388 -2094 547.388 -2094 547.388 -2058 638.388 -2058 638.388 -2094"/><text x="592.888" y="-2073.2" fill="#000" font-family="Courier,monospace" font-size="11" text-anchor="middle">EdgeHandler</text></g><g id="edge26" class="edge"><title>\\ArangoDBClient\\EdgeHandler-&gt;\\ArangoDBClient\\DocumentHandler</title><path fill="none" stroke="#000" d="M547.3524,-2072.859C526.2179,-2069.4901 501.7664,-2062.6752 483.3875,-2049 432.8756,-2011.4155 461.4596,-1965.1685 411.3875,-1927 402.3595,-1920.1182 391.6978,-1914.989 380.766,-1911.1665"/><polygon fill="none" stroke="#000" points="381.713 -1907.795 371.124 -1908.132 379.612 -1914.473 381.713 -1907.795"/></g><g id="node53" class="node"><title>\\ArangoDBClient\\ConnectionOptions</title><polygon fill="none" stroke="#000" points="658.388 -204 527.388 -204 527.388 -168 658.388 -168 658.388 -204"/><text x="592.888" y="-183.2" fill="#000" font-family="Courier,monospace" font-size="11" text-anchor="middle">ConnectionOptions</text></g><g id="node58" class="node"><title>\\ArrayAccess</title><ellipse cx="311.887" cy="-18" fill="none" stroke="#000" rx="58.49" ry="18"/><text x="311.887" y="-14.3" fill="silver" font-family="Times,serif" font-size="14" text-anchor="middle">\ArrayAccess</text></g><g id="edge27" class="edge"><title>\\ArangoDBClient\\ConnectionOptions-&gt;\\ArrayAccess</title><path fill="none" stroke="#000" stroke-dasharray="1 5" d="M527.3732,-178.4006C511.939,-174.383 496.2527,-168.2745 483.3875,-159 434.7764,-123.9562 459.5885,-80.6059 411.3875,-45 400.8902,-37.2456 388.3008,-31.7181 375.6627,-27.7781"/><polygon fill="none" stroke="#000" points="376.597 -24.405 366.023 -25.064 374.7 -31.143 376.597 -24.405"/></g><g id="node54" class="node"><title>\\ArangoDBClient\\DocumentClassable</title><polygon fill="none" stroke="#000" points="658.388 -150 527.388 -150 527.388 -114 658.388 -114 658.388 -150"/><text x="592.888" y="-129.2" fill="#000" font-family="Courier,monospace" font-size="11" text-anchor="middle">DocumentClassable</text></g></g></svg>